<?xml version="1.0" encoding="UTF-8"?>
<svg width="88px" height="31px" viewBox="0 0 88 31" version="1.1" xmlns="http://www.w3.org/2000/svg" xmlns:xlink="http://www.w3.org/1999/xlink">
    <title>wcag2.1AAA-v</title>
    <g id="Page-1" stroke="none" stroke-width="1" fill="none" fill-rule="evenodd">
        <g id="Artboard" transform="translate(-11.000000, -14.000000)">
            <g id="wcag2.1AAA-v" transform="translate(11.000000, 14.000000)">
                <polygon id="Path" fill="#F0F0F0" points="0 0 88 0 88 31 0 31 0 0"></polygon>
                <path d="M26.71,9.83 L26.98,11.47 L25.98,13.3 C25.741996,12.8265359 25.4001637,12.4129189 24.98,12.09 C24.6041852,11.7637271 24.0931587,11.6406331 23.61,11.76 C22.7456536,12.0837737 22.0879503,12.8009304 21.84,13.69 C21.5656119,14.4224711 21.4234065,15.1978292 21.42,15.98 C21.3984107,16.4295468 21.4353876,16.8799922 21.53,17.32 C21.1368963,16.4925281 20.9384926,15.5860283 20.95,14.67 C20.9224175,13.5817775 21.162806,12.5034634 21.65,11.53 C21.9575343,10.785038 22.6053469,10.234025 23.39,10.05 C23.9461652,10.0196506 24.4897928,10.2226049 24.89,10.61 C25.2071733,10.9334163 25.4765569,11.3004515 25.69,11.7 L26.63,9.82 L26.71,9.83 Z" id="Path" fill="#1D1D1B" fill-rule="nonzero"></path>
                <path d="M26.83,19.11 C26.6251692,19.4600164 26.39453,19.794276 26.14,20.11 C25.7761175,20.5488689 25.3270834,20.9094569 24.82,21.17 C24.3707853,21.4019785 23.8608041,21.489304 23.36,21.42 C22.8932893,21.3508981 22.4504855,21.168971 22.07,20.89 C21.7174113,20.6223648 21.4013908,20.3097062 21.13,19.96 C20.86,19.58 20.44,18.82 20.44,18.82 C20.44,18.82 20.68,19.58 20.82,19.91 C21.0168159,20.3500934 21.2580678,20.7689335 21.54,21.16 C22.0038371,21.8725453 22.7171278,22.3861146 23.54,22.6 C24.196717,22.7183252 24.8737632,22.5786173 25.43,22.21 C25.7073255,22.0153145 25.9651904,21.7942874 26.2,21.55 C26.421933,21.3040685 26.6226495,21.0397917 26.8,20.76 C26.89,20.62 27.04,20.32 27.04,20.32 L26.8,19.05 L26.83,19.11 Z" id="Path" fill="#1D1D1B" fill-rule="nonzero"></path>
                <polygon id="Path" fill="#0B5196" fill-rule="nonzero" points="9.25 9.9 11.55 17.72 13.85 9.9 15.52 9.9 11.71 22.75 11.55 22.75 9.17 14.79 6.79 22.75 6.63 22.75 2.82 9.9 4.49 9.9 6.79 17.72 8.35 12.45 7.58 9.9 9.25 9.9"></polygon>
                <path d="M20.25,18.63 C20.2850331,19.6874751 19.9568206,20.72505 19.32,21.57 C18.8154385,22.2165846 18.0681578,22.6284055 17.2520359,22.7096399 C16.435914,22.7908742 15.622117,22.5344384 15,22 C14.4239957,21.4888597 14.0015753,20.8275295 13.78,20.09 L15.08,19.55 C15.2377431,19.9861551 15.4944654,20.3797959 15.83,20.7 C16.1299508,20.9747319 16.5232765,21.1249108 16.93,21.12 C17.4154128,21.0952575 17.8486716,20.8076963 18.06,20.37 C18.3781435,19.82827 18.5375435,19.207996 18.52,18.58 C18.5594119,17.9455329 18.3870638,17.3159347 18.03,16.79 C17.5895143,16.2655312 16.9227871,15.9861762 16.24,16.04 L15.61,16.04 L15.61,15.28 L17.83,11.44 L15.15,11.44 L14.4,12.71 L13.92,12.71 L13.92,9.9 L20.11,9.9 L20.11,10.68 L17.76,14.68 C18.5408631,14.9104665 19.2076675,15.4239416 19.63,16.12 C20.0636815,16.8658673 20.28178,17.7174901 20.26,18.58 L20.25,18.63 Z" id="Path" fill="#0B5196" fill-rule="nonzero"></path>
                <path d="M44.1,14.83 L42.31,14.83 L41.31,10.94 C41.27,10.8 41.2066667,10.5133333 41.12,10.08 C41.0333333,9.64666667 40.9833333,9.35666667 40.97,9.21 C40.97,9.39 40.92,9.68333333 40.82,10.09 C40.72,10.4966667 40.6566667,10.7833333 40.63,10.95 L39.63,14.83 L37.85,14.83 L36,7.42 L37.54,7.42 L38.49,11.42 C38.6566667,12.1666667 38.7766667,12.8133333 38.85,13.36 C38.85,13.1666667 38.8966667,12.87 38.99,12.47 C39.06,12.07 39.13,11.75 39.19,11.53 L40.27,7.38 L41.75,7.38 L42.83,11.53 C42.8766667,11.7166667 42.9366667,12 43.01,12.38 C43.0833333,12.76 43.1366667,13.0933333 43.17,13.38 C43.2033333,13.1133333 43.2566667,12.78 43.33,12.38 C43.4033333,11.98 43.47,11.6466667 43.53,11.38 L44.47,7.38 L46,7.38 L44.1,14.83 Z" id="Path" fill="#1D1D1B" fill-rule="nonzero"></path>
                <path d="M51,14.84 L50.46,13.08 L47.76,13.08 L47.22,14.84 L45.53,14.84 L48.14,7.4 L50.06,7.4 L52.68,14.84 L51,14.84 Z M50.09,11.76 L49.25,9.05 C49.19,8.84 49.14,8.68 49.12,8.55 C49.0066667,8.98333333 48.6733333,10.0533333 48.12,11.76 L50.09,11.76 Z" id="Shape" fill="#1D1D1B" fill-rule="nonzero"></path>
                <polygon id="Path" fill="#1D1D1B" fill-rule="nonzero" points="57.17 14.84 53.8 14.84 53.8 13.95 54.7 13.53 54.7 8.74 53.8 8.32 53.8 7.43 57.17 7.43 57.17 8.32 56.27 8.74 56.27 13.53 57.17 13.95"></polygon>
                <polygon id="Path" fill="#1D1D1B" fill-rule="nonzero" points="58.78 12.32 58.78 11.05 61.5 11.05 61.5 12.32"></polygon>
                <path d="M67.3,14.84 L66.76,13.08 L64.06,13.08 L63.52,14.84 L61.83,14.84 L64.44,7.4 L66.36,7.4 L68.98,14.84 L67.3,14.84 Z M66.39,11.76 L65.55,9.05 C65.49,8.84 65.44,8.68 65.42,8.55 C65.3066667,8.98333333 64.9733333,10.0533333 64.42,11.76 L66.39,11.76 Z" id="Shape" fill="#901A16" fill-rule="nonzero"></path>
                <path d="M74.66,14.83 L74.12,13.07 L71.42,13.07 L70.88,14.83 L69.19,14.83 L71.8,7.39 L73.72,7.39 L76.34,14.83 L74.66,14.83 Z M73.75,11.75 L72.91,9.04 C72.85,8.83 72.8,8.67 72.78,8.54 C72.6666667,8.97333333 72.3333333,10.0433333 71.78,11.75 L73.75,11.75 Z" id="Shape" fill="#901A16" fill-rule="nonzero"></path>
                <path d="M82,14.83 L81.46,13.07 L78.76,13.07 L78.22,14.83 L76.53,14.83 L79.14,7.39 L81.06,7.39 L83.68,14.83 L82,14.83 Z M81.09,11.75 L80.25,9.04 C80.19,8.83 80.14,8.67 80.12,8.54 C80.0066667,8.97333333 79.6733333,10.0433333 79.12,11.75 L81.09,11.75 Z" id="Shape" fill="#901A16" fill-rule="nonzero"></path>
                <path d="M47.05,26.47 L45.33,26.47 L44.33,22.72 C44.33,22.59 44.23,22.31 44.15,21.89 C44.07,21.47 44.01,21.19 44,21.05 C44,21.2233333 43.95,21.5066667 43.85,21.9 C43.75,22.2933333 43.69,22.57 43.67,22.73 L42.67,26.47 L41,26.47 L39.18,19.33 L40.67,19.33 L41.58,23.23 C41.74,23.95 41.8566667,24.5733333 41.93,25.1 C41.93,24.9133333 41.9733333,24.6266667 42.06,24.24 C42.1466667,23.8533333 42.2133333,23.55 42.26,23.33 L43.26,19.33 L44.69,19.33 L45.69,23.33 C45.69,23.51 45.79,23.78 45.86,24.15 C45.93,24.52 45.98,24.83 46.02,25.1 C46.02,24.8466667 46.0733333,24.53 46.18,24.15 C46.2866667,23.77 46.3533333,23.4633333 46.38,23.23 L47.29,19.33 L48.78,19.33 L47.05,26.47 Z" id="Path" fill="#1D1D1B" fill-rule="nonzero"></path>
                <path d="M52.35,20.49 C51.8301274,20.4666024 51.3336029,20.7073415 51.03,21.13 C50.6886099,21.6622263 50.5241136,22.2887123 50.56,22.92 C50.56,24.5133333 51.1566667,25.31 52.35,25.31 C52.9734884,25.2847053 53.5884799,25.1563004 54.17,24.93 L54.17,26.2 C53.5352484,26.4574311 52.8548381,26.583307 52.17,26.57 C51.2761171,26.6276907 50.4032169,26.2829318 49.79,25.63 C49.1918451,24.8582476 48.896632,23.894359 48.96,22.92 C48.9390888,22.2305045 49.0794834,21.5456528 49.37,20.92 C49.6219092,20.3850505 50.0297778,19.9388353 50.54,19.64 C51.0816078,19.3315087 51.6968556,19.1759685 52.32,19.19 C53.0454591,19.1969166 53.7599559,19.3678488 54.41,19.69 L54,21 C53.7361403,20.8754923 53.4657462,20.7653317 53.19,20.67 C52.9229756,20.5603842 52.6384941,20.4994239 52.35,20.49 Z" id="Path" fill="#1D1D1B" fill-rule="nonzero"></path>
                <path d="M59.91,26.47 L59.39,24.77 L56.79,24.77 L56.27,26.47 L54.64,26.47 L57.16,19.3 L59,19.3 L61.53,26.47 L59.91,26.47 Z M59.03,23.47 L58.22,20.86 C58.16,20.66 58.12,20.5 58.09,20.38 C57.9833333,20.8 57.6766667,21.83 57.17,23.47 L59.03,23.47 Z" id="Shape" fill="#1D1D1B" fill-rule="nonzero"></path>
                <path d="M64.65,22.46 L67.48,22.46 L67.48,26.16 C67.0563689,26.3028023 66.6215132,26.4098437 66.18,26.48 C65.7694061,26.5401222 65.3549723,26.5702021 64.94,26.57 C64.0171239,26.6313139 63.1139348,26.2839335 62.47,25.62 C61.8599939,24.8458042 61.5573067,23.8736443 61.62,22.89 C61.5632483,21.8900808 61.9256054,20.9117168 62.62,20.19 C63.3615697,19.5015602 64.3493167,19.1410686 65.36,19.19 C66.089386,19.1895075 66.8110528,19.3392874 67.48,19.63 L66.98,20.84 C66.474916,20.5835726 65.9164493,20.4499517 65.35,20.45 C64.7544638,20.4250555 64.1788369,20.6670387 63.78,21.11 C63.3668039,21.6042865 63.156015,22.2366532 63.19,22.88 C63.1483762,23.5101261 63.3172137,24.1362317 63.67,24.66 C64.0046505,25.074061 64.5185271,25.3012093 65.05,25.27 C65.3858865,25.2711703 65.7209964,25.2376593 66.05,25.17 L66.05,23.68 L64.7,23.68 L64.65,22.46 Z" id="Path" fill="#1D1D1B" fill-rule="nonzero"></path>
                <path d="M77.28,26.47 L72.49,26.47 L72.49,25.47 L74.17,23.66 L74.75,23.03 C74.9089875,22.8533516 75.0559822,22.6662675 75.19,22.47 C75.3097343,22.296213 75.4071637,22.1080735 75.48,21.91 C75.5486543,21.7140549 75.5824979,21.5076093 75.58,21.3 C75.5919129,21.090171 75.5115502,20.8856113 75.36,20.74 C75.1993057,20.6017042 74.9917812,20.530144 74.78,20.54 C74.521344,20.5405974 74.2669497,20.6059149 74.04,20.73 C73.7690673,20.8789839 73.5172247,21.0603105 73.29,21.27 L72.47,20.27 C72.62,20.14 72.77,20.01 72.93,19.89 C73.2738986,19.6274796 73.6690931,19.4401029 74.09,19.34 C74.3453375,19.2781949 74.6072967,19.2479688 74.87,19.25 C75.1823163,19.2452098 75.4932458,19.2925252 75.79,19.39 C76.048067,19.4744335 76.2862387,19.6105316 76.49,19.79 C76.6815311,19.9648074 76.8318206,20.1799946 76.93,20.42 C77.0338043,20.6841932 77.0847668,20.9661856 77.08,21.25 C77.0795016,21.5236107 77.0286548,21.7947936 76.93,22.05 C76.826582,22.3148406 76.6923234,22.5665756 76.53,22.8 C76.3502807,23.0565559 76.15315,23.3004634 75.94,23.53 C75.72,23.77 75.4833333,24.0166667 75.23,24.27 L74.37,25.13 L74.37,25.2 L77.28,25.2 L77.28,26.47 Z" id="Path" fill="#1D1D1B" fill-rule="nonzero"></path>
                <path d="M78.76,25.77 C78.7570869,25.6366323 78.7808873,25.5040297 78.83,25.38 C78.8676819,25.2798371 78.9295116,25.1905276 79.01,25.12 C79.0893358,25.0551423 79.1812774,25.0074689 79.28,24.98 C79.3927957,24.9643887 79.5072043,24.9643887 79.62,24.98 C79.729457,24.9645427 79.840543,24.9645427 79.95,24.98 C80.0487226,25.0074689 80.1406642,25.0551423 80.22,25.12 C80.3035287,25.1899315 80.3687457,25.2791757 80.41,25.38 C80.4591127,25.5040297 80.4829131,25.6366323 80.48,25.77 C80.4835277,25.9001705 80.4596797,26.0296309 80.41,26.15 C80.3674161,26.250075 80.3024109,26.3390294 80.22,26.41 C80.141729,26.4786855 80.0496686,26.5298301 79.95,26.56 C79.8405822,26.5760053 79.7294178,26.5760053 79.62,26.56 C79.5072315,26.5760022 79.3927685,26.5760022 79.28,26.56 C79.1803314,26.5298301 79.088271,26.4786855 79.01,26.41 C78.9306815,26.3384364 78.8690635,26.2494325 78.83,26.15 C78.7821842,26.0290887 78.7584071,25.9000129 78.76,25.77 Z" id="Path" fill="#1D1D1B" fill-rule="nonzero"></path>
                <path d="M83.63,26.47 L82.12,26.47 L82.12,22.34 C82.12,22.26 82.12,22.15 82.12,22.04 C82.12,21.93 82.12,21.8 82.12,21.67 L82.12,20.92 L82.04,21.01 L81.91,21.14 L81.76,21.28 L81.61,21.41 L80.79,22.07 L80.06,21.16 L82.36,19.33 L83.6,19.33 L83.63,26.47 Z" id="Path" fill="#1D1D1B" fill-rule="nonzero"></path>
            </g>
        </g>
    </g>
</svg>